<?xml version="1.0" encoding="UTF-8" standalone="no"?>
<svg
   xmlns:dc="http://purl.org/dc/elements/1.1/"
   xmlns:cc="http://creativecommons.org/ns#"
   xmlns:rdf="http://www.w3.org/1999/02/22-rdf-syntax-ns#"
   xmlns:svg="http://www.w3.org/2000/svg"
   xmlns="http://www.w3.org/2000/svg"
   xmlns:sodipodi="http://sodipodi.sourceforge.net/DTD/sodipodi-0.dtd"
   xmlns:inkscape="http://www.inkscape.org/namespaces/inkscape"
   width="102.73088mm"
   height="101.79319mm"
   viewBox="0 0 102.73088 101.79319"
   version="1.1"
   id="svg845"
   sodipodi:docname="logo.svg"
   inkscape:version="1.0.1 (3bc2e813f5, 2020-09-07)">
  <defs
     id="defs839">
    <inkscape:path-effect
       effect="perspective-envelope"
       up_left_point="357.07076,434.69881"
       up_right_point="689.50541,434.69881"
       down_left_point="357.07076,763.39063"
       down_right_point="689.50541,763.39063"
       id="path-effect1650"
       is_visible="true"
       lpeversion="1"
       deform_type="perspective"
       horizontal_mirror="false"
       vertical_mirror="false"
       overflow_perspective="false" />
    <inkscape:path-effect
       effect="perspective-envelope"
       up_left_point="41.76,78.531849"
       up_right_point="129.61,78.531849"
       down_left_point="39.657746,165.49817"
       down_right_point="127.61462,165.49817"
       id="path-effect1647"
       is_visible="true"
       lpeversion="1"
       deform_type="envelope_deformation"
       horizontal_mirror="false"
       vertical_mirror="false"
       overflow_perspective="false" />
    <inkscape:path-effect
       effect="perspective-envelope"
       up_left_point="39.657746,78.531849"
       up_right_point="127.61462,78.531849"
       down_left_point="39.657746,165.49817"
       down_right_point="127.61462,165.49817"
       id="path-effect1645"
       is_visible="true"
       lpeversion="1"
       deform_type="perspective"
       horizontal_mirror="false"
       vertical_mirror="false"
       overflow_perspective="false" />
    <inkscape:path-effect
       effect="fill_between_strokes"
       id="path-effect1643"
       is_visible="true"
       lpeversion="1"
       linkedpath=""
       secondpath=""
       reversesecond="false"
       join="true"
       close="true" />
    <inkscape:path-effect
       effect="fill_between_many"
       id="path-effect1641"
       is_visible="true"
       lpeversion="1"
       linkedpaths=""
       method="d"
       join="true"
       close="true"
       autoreverse="true"
       applied="false" />
  </defs>
  <sodipodi:namedview
     id="base"
     pagecolor="#ffffff"
     bordercolor="#666666"
     borderopacity="1.0"
     inkscape:pageopacity="0.0"
     inkscape:pageshadow="2"
     inkscape:zoom="1.4142136"
     inkscape:cx="147.32315"
     inkscape:cy="116.77938"
     inkscape:document-units="mm"
     inkscape:current-layer="layer1"
     inkscape:document-rotation="0"
     showgrid="false"
     inkscape:window-width="1920"
     inkscape:window-height="1017"
     inkscape:window-x="-8"
     inkscape:window-y="-8"
     inkscape:window-maximized="1"
     fit-margin-top="0"
     fit-margin-left="0"
     fit-margin-right="0"
     fit-margin-bottom="0" />
  <metadata
     id="metadata842">
    <rdf:RDF>
      <cc:Work
         rdf:about="">
        <dc:format>image/svg+xml</dc:format>
        <dc:type
           rdf:resource="http://purl.org/dc/dcmitype/StillImage" />
        <dc:title></dc:title>
      </cc:Work>
    </rdf:RDF>
  </metadata>
  <g
     inkscape:label="Warstwa 1"
     inkscape:groupmode="layer"
     id="layer1"
     transform="translate(-87.087528,-107.62054)">
    <path
       id="rect1667"
       style="opacity:0.999;fill:none;fill-opacity:1;stroke:#000000;stroke-width:2.89417;stroke-linecap:butt;stroke-linejoin:round;stroke-miterlimit:4;stroke-dasharray:none;stroke-dashoffset:0;stroke-opacity:1;paint-order:stroke fill markers"
       d="m 138.47407,113.93209 c -3.39219,-0.0175 -7.016,1.38436 -9.38818,4.47092 -1.37508,1.63889 -2.20614,3.50826 -2.55094,5.42858 h -4.07692 c -0.0331,-0.001 -0.0665,-0.004 -0.0995,-0.005 -0.27344,-0.008 -0.54505,-0.004 -0.81557,0.005 h -0.14956 v 0.006 c -5.46731,0.25883 -10.22874,4.12172 -11.24273,9.5742 h -5.16731 v 0.0182 c -6.319477,0.25388 -11.732172,5.31805 -11.534369,12.10504 7.18e-4,0.13633 0.004,0.27229 0.0094,0.40802 v 11.39042 c -0.01409,0.29555 -0.01658,0.5953 -0.007,0.89876 0.01898,2.17869 0.621766,4.28615 1.760136,6.14459 2.329749,4.00668 6.535223,5.98349 10.687963,5.82538 h 4.04513 v 10.32901 c -0.002,0.0738 2.4e-4,0.14872 0,0.22294 v 0.81463 h 0.0112 c 0.081,2.04688 0.68076,4.01975 1.75359,5.77116 2.373,4.08105 6.69276,6.0543 10.92071,5.81276 h 3.9138 c 0.72863,4.08448 3.54,7.76367 7.92622,9.19655 7.09421,2.66668 14.68944,-2.03821 15.82769,-9.19655 h 4.55925 v -0.003 c 5.65202,0.12087 10.81153,-3.91985 11.89332,-9.5943 h 4.76303 v -9.5e-4 c 6.41164,0.049 12.15221,-5.2408 11.94332,-12.16533 -0.002,-0.25851 -0.0126,-0.51595 -0.0309,-0.77211 v -10.68094 c 0.0312,-0.40218 0.0426,-0.81145 0.0294,-1.22873 -0.0189,-2.17684 -0.62127,-4.28097 -1.75593,-6.13665 -2.24318,-3.85947 -6.33414,-5.70624 -10.21591,-5.72629 -0.25082,-0.001 -0.503,0.008 -0.75574,0.022 h -3.77034 v -10.39398 c 0.007,-0.23448 0.009,-0.47044 10e-4,-0.709 -1.4e-4,-0.0195 -10e-4,-0.0389 -10e-4,-0.0584 v -0.24397 h -0.006 c -0.0664,-2.07501 -0.66345,-4.07785 -1.74939,-5.85388 -2.14879,-3.6971 -5.99238,-5.54232 -9.72376,-5.70946 v -0.0234 h -5.22339 c -0.25035,-1.48617 -0.76795,-2.9133 -1.56431,-4.21573 -2.24346,-3.85999 -6.33459,-5.70625 -10.21637,-5.7263 z"
       sodipodi:nodetypes="cccccccccccccccccccccccccccccccccccccccccccccccccccc" />
    <g
       id="g1607"
       transform="matrix(0.90442768,0,0,0.90442768,62.810265,48.145444)"
       inkscape:transform-center-x="1.4357794"
       inkscape:transform-center-y="-37.330253">
      <path
         id="path1526"
         style="display:inline;opacity:0.999;fill:#000000;stroke:none;stroke-width:49.0016;stroke-linecap:butt;stroke-linejoin:round;stroke-miterlimit:2.8;stroke-dasharray:49.0016, 98.0032;stroke-dashoffset:0;stroke-opacity:1;paint-order:stroke fill markers"
         sodipodi:type="inkscape:offset"
         inkscape:radius="0"
         inkscape:original="M 523.26172 434.69922 C 514.84584 434.65572 506.43494 438.07677 501.19922 445.1543 C 488.879 459.32708 495.93597 484.01043 513.87695 489.54102 C 531.32307 496.44354 552.28343 481.62767 551.54297 462.85742 C 551.55097 457.60884 550.0558 452.37275 547.27734 447.91992 C 542.34481 439.24899 532.79972 434.74848 523.26172 434.69922 z M 455.35938 476.03711 C 440.23185 475.57352 425.40648 488.59424 426.03125 504.43164 C 426.02325 509.68022 427.52038 514.91828 430.29883 519.37109 C 439.58359 535.69287 465.20546 537.23349 476.375 522.13477 C 488.69522 507.96199 481.6402 483.28059 463.69922 477.75 C 460.97326 476.67148 458.16076 476.12296 455.35938 476.03711 z M 592.26172 476.27344 C 583.84583 476.22994 575.43494 479.65294 570.19922 486.73047 C 557.879 500.90324 564.93597 525.58465 582.87695 531.11523 C 600.32305 538.01775 621.28342 523.20188 620.54297 504.43164 C 620.55097 499.18306 619.05579 493.94696 616.27734 489.49414 C 611.34482 480.82321 601.79972 476.3227 592.26172 476.27344 z M 386.41602 516.13672 C 371.28848 515.67312 356.46507 528.69579 357.08984 544.5332 C 357.08184 549.7818 358.57701 555.01789 361.35547 559.4707 C 364.55884 565.10195 369.70673 568.97367 375.53516 571.00977 C 364.93359 575.1766 356.6188 585.50679 357.08984 597.44727 C 357.08184 602.69586 358.57701 607.93195 361.35547 612.38477 C 370.64023 628.70654 396.26405 630.24716 407.43359 615.14844 C 419.5943 601.15915 412.86858 576.94549 395.43945 571.00195 C 400.11187 569.33581 404.33135 566.42987 407.43359 562.23633 C 419.75381 548.06355 412.69685 523.38019 394.75586 517.84961 C 392.0299 516.77109 389.21741 516.22257 386.41602 516.13672 z M 455.35938 544.06836 C 440.23183 543.60477 425.40647 556.62548 426.03125 572.46289 C 426.02325 577.71148 427.52038 582.94953 430.29883 587.40234 C 433.50222 593.03361 438.65006 596.90336 444.47852 598.93945 C 433.87623 603.1059 425.56018 613.43591 426.03125 625.37695 C 426.02325 630.62555 427.52037 635.86164 430.29883 640.31445 C 439.58359 656.63623 465.20546 658.1788 476.375 643.08008 C 488.53595 629.09052 481.81075 604.87458 464.38086 598.93164 C 469.05396 597.2656 473.27238 594.36007 476.375 590.16602 C 488.69522 575.99324 481.6402 551.31183 463.69922 545.78125 C 460.97326 544.70273 458.16076 544.15421 455.35938 544.06836 z M 592.26172 544.30664 C 583.84583 544.26314 575.43494 547.68419 570.19922 554.76172 C 558.0385 568.75101 564.76424 592.96467 582.19336 598.9082 C 577.52087 600.57434 573.30151 603.48023 570.19922 607.67383 C 557.87901 621.8466 564.93596 646.52996 582.87695 652.06055 C 600.32309 658.96306 621.28345 644.14722 620.54297 625.37695 C 620.55097 620.12836 619.05579 614.89227 616.27734 610.43945 C 613.07396 604.80819 607.92416 600.93648 602.0957 598.90039 C 612.69827 594.73411 621.01403 584.40416 620.54297 572.46289 C 620.55097 567.2143 619.05579 561.9782 616.27734 557.52539 C 611.34482 548.85445 601.79972 544.3559 592.26172 544.30664 z M 523.26172 570.76172 C 514.84584 570.71822 506.43494 574.13927 501.19922 581.2168 C 488.87901 595.38957 495.93596 620.07098 513.87695 625.60156 C 531.32308 632.50408 552.28345 617.69019 551.54297 598.91992 C 551.55097 593.67133 550.0558 588.43328 547.27734 583.98047 C 542.34481 575.30953 532.79972 570.81098 523.26172 570.76172 z M 661.20508 572.23633 C 652.7892 572.19283 644.37829 575.61388 639.14258 582.69141 C 626.98139 596.68126 633.70801 620.89754 651.13867 626.83984 C 646.4655 628.50588 642.24524 631.41136 639.14258 635.60547 C 626.82238 649.77824 633.87931 674.45965 651.82031 679.99023 C 669.26642 686.89275 690.22681 672.07886 689.48633 653.30859 C 689.49433 648.06 687.99719 642.82195 685.21875 638.36914 C 682.01537 632.73788 676.86752 628.86812 671.03906 626.83203 C 681.64163 622.66575 689.95739 612.33578 689.48633 600.39453 C 689.49433 595.14594 687.99719 589.90984 685.21875 585.45703 C 680.28623 576.78609 670.74308 572.28559 661.20508 572.23633 z M 455.35938 665.01367 C 440.23183 664.55008 425.40647 677.57079 426.03125 693.4082 C 426.02325 698.6568 427.52037 703.89289 430.29883 708.3457 C 439.58359 724.66748 465.20546 726.21005 476.375 711.11133 C 488.69521 696.93855 481.64021 672.25715 463.69922 666.72656 C 460.97326 665.64804 458.16076 665.09952 455.35938 665.01367 z M 592.26172 665.25 C 583.84583 665.2065 575.43494 668.62755 570.19922 675.70508 C 557.87901 689.87785 564.93596 714.56121 582.87695 720.0918 C 600.32309 726.99431 621.28345 712.17847 620.54297 693.4082 C 620.55097 688.15961 619.05579 682.92352 616.27734 678.4707 C 611.34482 669.79976 601.79972 665.29926 592.26172 665.25 z M 523.26172 706.82617 C 514.84584 706.78267 506.43494 710.20372 501.19922 717.28125 C 488.87901 731.45402 495.93596 756.13543 513.87695 761.66602 C 531.32308 768.56853 552.28345 753.75269 551.54297 734.98242 C 551.55097 729.73383 550.0558 724.49773 547.27734 720.04492 C 542.34481 711.37398 532.79972 706.87543 523.26172 706.82617 z "
         d="m 523.26172,434.69922 c -8.41588,-0.0435 -16.82678,3.37755 -22.0625,10.45508 -12.32022,14.17278 -5.26325,38.85613 12.67773,44.38672 17.44612,6.90252 38.40648,-7.91335 37.66602,-26.6836 0.008,-5.24858 -1.48717,-10.48467 -4.26563,-14.9375 -4.93253,-8.67093 -14.47762,-13.17144 -24.01562,-13.2207 z m -67.90234,41.33789 c -15.12753,-0.46359 -29.9529,12.55713 -29.32813,28.39453 -0.008,5.24858 1.48913,10.48664 4.26758,14.93945 9.28476,16.32178 34.90663,17.8624 46.07617,2.76368 12.32022,-14.17278 5.2652,-38.85418 -12.67578,-44.38477 -2.72596,-1.07852 -5.53846,-1.62704 -8.33984,-1.71289 z m 136.90234,0.23633 c -8.41589,-0.0435 -16.82678,3.3795 -22.0625,10.45703 -12.32022,14.17277 -5.26325,38.85418 12.67773,44.38476 17.4461,6.90252 38.40647,-7.91335 37.66602,-26.68359 0.008,-5.24858 -1.48718,-10.48468 -4.26563,-14.9375 -4.93252,-8.67093 -14.47762,-13.17144 -24.01562,-13.2207 z m -205.8457,39.86328 c -15.12754,-0.4636 -29.95095,12.55907 -29.32618,28.39648 -0.008,5.2486 1.48717,10.48469 4.26563,14.9375 3.20337,5.63125 8.35126,9.50297 14.17969,11.53907 -10.60157,4.16683 -18.91636,14.49702 -18.44532,26.4375 -0.008,5.24859 1.48717,10.48468 4.26563,14.9375 9.28476,16.32177 34.90858,17.86239 46.07812,2.76367 12.16071,-13.98929 5.43499,-38.20295 -11.99414,-44.14649 4.67242,-1.66614 8.8919,-4.57208 11.99414,-8.76562 12.32022,-14.17278 5.26326,-38.85614 -12.67773,-44.38672 -2.72596,-1.07852 -5.53845,-1.62704 -8.33984,-1.71289 z m 68.94336,27.93164 c -15.12755,-0.46359 -29.95291,12.55712 -29.32813,28.39453 -0.008,5.24859 1.48913,10.48664 4.26758,14.93945 3.20339,5.63127 8.35123,9.50102 14.17969,11.53711 -10.60229,4.16645 -18.91834,14.49646 -18.44727,26.4375 -0.008,5.2486 1.48912,10.48469 4.26758,14.9375 9.28476,16.32178 34.90663,17.86435 46.07617,2.76563 12.16095,-13.98956 5.43575,-38.2055 -11.99414,-44.14844 4.6731,-1.66604 8.89152,-4.57157 11.99414,-8.76562 12.32022,-14.17278 5.2652,-38.85419 -12.67578,-44.38477 -2.72596,-1.07852 -5.53846,-1.62704 -8.33984,-1.71289 z m 136.90234,0.23828 c -8.41589,-0.0435 -16.82678,3.37755 -22.0625,10.45508 -12.16072,13.98929 -5.43498,38.20295 11.99414,44.14648 -4.67249,1.66614 -8.89185,4.57203 -11.99414,8.76563 -12.32021,14.17277 -5.26326,38.85613 12.67773,44.38672 17.44614,6.90251 38.4065,-7.91333 37.66602,-26.6836 0.008,-5.24859 -1.48718,-10.48468 -4.26563,-14.9375 -3.20338,-5.63126 -8.35318,-9.50297 -14.18164,-11.53906 10.60257,-4.16628 18.91833,-14.49623 18.44727,-26.4375 0.008,-5.24859 -1.48718,-10.48469 -4.26563,-14.9375 -4.93252,-8.67094 -14.47762,-13.16949 -24.01562,-13.21875 z m -69,26.45508 c -8.41588,-0.0435 -16.82678,3.37755 -22.0625,10.45508 -12.32021,14.17277 -5.26326,38.85418 12.67773,44.38476 17.44613,6.90252 38.4065,-7.91137 37.66602,-26.68164 0.008,-5.24859 -1.48717,-10.48664 -4.26563,-14.93945 -4.93253,-8.67094 -14.47762,-13.16949 -24.01562,-13.21875 z m 137.94336,1.47461 c -8.41588,-0.0435 -16.82679,3.37755 -22.0625,10.45508 -12.16119,13.98985 -5.43457,38.20613 11.99609,44.14843 -4.67317,1.66604 -8.89343,4.57152 -11.99609,8.76563 -12.3202,14.17277 -5.26327,38.85418 12.67773,44.38476 17.44611,6.90252 38.4065,-7.91137 37.66602,-26.68164 0.008,-5.24859 -1.48914,-10.48664 -4.26758,-14.93945 -3.20338,-5.63126 -8.35123,-9.50102 -14.17969,-11.53711 10.60257,-4.16628 18.91833,-14.49625 18.44727,-26.4375 0.008,-5.24859 -1.48914,-10.48469 -4.26758,-14.9375 -4.93252,-8.67094 -14.47567,-13.17144 -24.01367,-13.2207 z m -205.8457,92.77734 c -15.12755,-0.46359 -29.95291,12.55712 -29.32813,28.39453 -0.008,5.2486 1.48912,10.48469 4.26758,14.9375 9.28476,16.32178 34.90663,17.86435 46.07617,2.76563 12.32021,-14.17278 5.26521,-38.85418 -12.67578,-44.38477 -2.72596,-1.07852 -5.53846,-1.62704 -8.33984,-1.71289 z M 592.26172,665.25 c -8.41589,-0.0435 -16.82678,3.37755 -22.0625,10.45508 -12.32021,14.17277 -5.26326,38.85613 12.67773,44.38672 17.44614,6.90251 38.4065,-7.91333 37.66602,-26.6836 0.008,-5.24859 -1.48718,-10.48468 -4.26563,-14.9375 -4.93252,-8.67094 -14.47762,-13.17144 -24.01562,-13.2207 z m -69,41.57617 c -8.41588,-0.0435 -16.82678,3.37755 -22.0625,10.45508 -12.32021,14.17277 -5.26326,38.85418 12.67773,44.38477 17.44613,6.90251 38.4065,-7.91333 37.66602,-26.6836 0.008,-5.24859 -1.48717,-10.48469 -4.26563,-14.9375 -4.93253,-8.67094 -14.47762,-13.16949 -24.01562,-13.21875 z"
         transform="matrix(0.26458333,0,0,0.26458333,-54.81698,-36.482291)" />
    </g>
    <rect
       style="opacity:0.999;fill:#000000;fill-opacity:1;stroke:#000000;stroke-width:3.03404;stroke-linecap:butt;stroke-linejoin:round;stroke-miterlimit:4;stroke-dasharray:none;stroke-dashoffset:0;stroke-opacity:1;paint-order:stroke fill markers"
       id="rect1806"
       width="10.48927"
       height="12.713203"
       x="116.69225"
       y="152.24568" />
    <rect
       style="opacity:0.999;fill:#000000;fill-opacity:1;stroke:#000000;stroke-width:3.03404;stroke-linecap:butt;stroke-linejoin:round;stroke-miterlimit:4;stroke-dasharray:none;stroke-dashoffset:0;stroke-opacity:1;paint-order:stroke fill markers"
       id="rect1806-7"
       width="10.489271"
       height="12.713203"
       x="100.20496"
       y="145.61963" />
    <rect
       style="opacity:0.999;fill:#000000;fill-opacity:1;stroke:#000000;stroke-width:2.90145;stroke-linecap:butt;stroke-linejoin:round;stroke-miterlimit:4;stroke-dasharray:none;stroke-dashoffset:0;stroke-opacity:1;paint-order:stroke fill markers"
       id="rect1806-72"
       width="10.64014"
       height="11.461468"
       x="149.63206"
       y="152.57542" />
    <rect
       style="opacity:0.999;fill:#000000;fill-opacity:1;stroke:#000000;stroke-width:2.97555;stroke-linecap:butt;stroke-linejoin:round;stroke-miterlimit:4;stroke-dasharray:none;stroke-dashoffset:0;stroke-opacity:1;paint-order:stroke fill markers"
       id="rect1806-72-3"
       width="10.60237"
       height="12.097296"
       x="166.16771"
       y="159.04875" />
  </g>
</svg>
